# xmcd
#
# Track frame offsets:
#	150
#	16025
#	33634
#	51921
#	68334
#	81205
#	94815
#	113852
#	124290
#	137857
#	155494
#	164339
#	178457
#	191167
#	208676
#	225322
#	236649
#	247673
#
# Disc length: 3518 seconds
# Revision: 1
# Processed by: cddbd v1.5.2PL0 Copyright (c) Steve Scherf et al.
# Submitted via: dBpowerAMP V12.0
#
DISCID=f30dbc12
DTITLE=Ingunn and Alv Magnus Tysse - 18 Samlede Ønskesanger
DYEAR=1900
DGENRE=Gospel
TTITLE0=Drømmen Om Himlen
TTITLE1=Engang Skal Herlighetens Morgen Rinne
TTITLE2=Å Hvor Jeg Lengter Se Staden
TTITLE3=Min Kung Och Jag
TTITLE4=Jesus Måtte Til Golgata
TTITLE5=Den Høyeste
TTITLE6=Er Ei Det Kjærlighet
TTITLE7=Lev I Fornyelse
TTITLE8=Lær Meg Å Gå Til Din Kilde
TTITLE9=Så Høyt Har Gud Elsket Verden
TTITLE10=Takk For Golgata
TTITLE11=Med Min Synd
TTITLE12=I Herrens Hender
TTITLE13=Det Ble Så Stille
TTITLE14=Det Stunder Mot Natten
TTITLE15=Herre Led Meg
TTITLE16=Før Jeg Vandret Uten Gud
TTITLE17=Kom Som Du Er
EXTD=
EXTT0=
EXTT1=
EXTT2=
EXTT3=
EXTT4=
EXTT5=
EXTT6=
EXTT7=
EXTT8=
EXTT9=
EXTT10=
EXTT11=
EXTT12=
EXTT13=
EXTT14=
EXTT15=
EXTT16=
EXTT17=
PLAYORDER=
